<?xml version="1.0" standalone="no"?>
<!DOCTYPE svg PUBLIC "-//W3C//DTD SVG 20010904//EN"
 "http://www.w3.org/TR/2001/REC-SVG-20010904/DTD/svg10.dtd">
<svg version="1.0" xmlns="http://www.w3.org/2000/svg"
 width="414.000000pt" height="441.000000pt" viewBox="0 0 414.000000 441.000000"
 preserveAspectRatio="xMidYMid meet">

<g transform="translate(0.000000,441.000000) scale(0.100000,-0.100000)"
fill="#000000" stroke="none">
<path d="M1580 3720 l0 -260 -22 -5 c-13 -3 -261 -45 -553 -95 l-530 -89 -29
-32 c-43 -48 -34 -91 62 -306 74 -166 81 -186 76 -227 -9 -65 3 -112 39 -153
107 -122 316 -59 334 101 10 85 -57 175 -144 192 -29 6 -35 15 -82 120 -28 63
-51 116 -51 118 0 5 349 61 353 56 2 -3 19 -108 39 -234 l36 -230 -19 -38
c-52 -102 3 -221 118 -254 48 -14 58 -14 107 0 56 17 107 62 127 113 27 72 -7
166 -76 210 -27 17 -46 38 -49 53 -22 99 -66 414 -59 420 4 4 71 17 148 29 77
12 148 25 158 27 16 5 17 -38 17 -801 l0 -806 -31 -39 c-53 -66 -52 -163 4
-227 17 -20 46 -42 64 -49 71 -30 178 -9 225 43 25 27 48 87 48 125 0 41 -36
115 -66 135 l-24 15 0 1174 0 1174 -110 0 -110 0 0 -260z"/>
<path d="M2028 3580 c-21 -11 -42 -29 -48 -39 -7 -13 -10 -501 -10 -1494 0
-1329 -2 -1476 -16 -1488 -8 -7 -24 -30 -35 -50 -61 -121 27 -261 166 -263
130 -1 225 119 186 237 -7 19 -30 53 -52 74 l-39 38 0 1183 c0 939 3 1182 13
1182 22 0 698 -117 702 -122 3 -2 -12 -44 -32 -92 -32 -77 -41 -89 -72 -102
-78 -33 -130 -117 -117 -191 32 -172 270 -214 355 -63 27 49 31 99 13 155 -13
39 -12 44 47 183 33 78 67 152 75 164 25 35 20 76 -13 109 -16 16 -39 29 -51
29 -28 0 -901 149 -912 156 -11 7 -10 164 1 164 5 0 267 -54 582 -120 316 -66
610 -128 654 -137 68 -14 85 -22 117 -54 94 -95 225 -87 304 17 25 32 29 47
29 100 0 54 -4 67 -31 101 -36 46 -105 83 -154 83 -20 0 -60 -12 -89 -26 l-52
-26 -727 152 c-399 84 -733 155 -742 156 -8 2 -32 -5 -52 -16z"/>
</g>
</svg>
