<?xml version="1.0" standalone="no"?>
<!DOCTYPE svg PUBLIC "-//W3C//DTD SVG 20010904//EN"
 "http://www.w3.org/TR/2001/REC-SVG-20010904/DTD/svg10.dtd">
<svg version="1.0" xmlns="http://www.w3.org/2000/svg"
 width="552.000000pt" height="585.000000pt" viewBox="0 0 552.000000 585.000000"
 preserveAspectRatio="xMidYMid meet">

<g transform="translate(0.000000,585.000000) scale(0.100000,-0.100000)"
fill="#000000" stroke="none">
<path d="M1650 5451 l0 -399 -22 -5 c-13 -4 -291 -51 -618 -107 -755 -128
-806 -137 -860 -161 -85 -38 -137 -110 -147 -203 -7 -67 12 -121 140 -411
l102 -230 -3 -136 c-3 -118 -1 -143 18 -200 45 -132 155 -256 278 -311 121
-54 272 -59 401 -13 l72 26 71 -65 c85 -80 166 -121 277 -143 83 -16 143 -13
264 13 l27 6 0 -367 0 -367 -34 -61 c-51 -92 -69 -173 -64 -290 5 -90 8 -104
46 -181 53 -106 137 -188 249 -243 l78 -38 137 0 138 0 0 -340 0 -341 -35 -65
c-108 -203 -78 -428 77 -595 106 -113 278 -177 432 -159 124 14 259 84 342
179 90 103 131 222 121 356 -7 98 -27 160 -77 242 l-40 68 2 1389 c2 764 6
1392 10 1396 7 7 138 -12 174 -26 21 -7 21 -9 8 -66 -49 -206 29 -414 198
-533 104 -73 178 -95 313 -94 94 0 120 4 178 27 175 68 294 211 332 401 21
104 82 265 241 634 8 17 19 32 24 32 6 0 32 -16 58 -35 132 -94 279 -131 419
-103 236 46 399 219 428 453 17 135 -44 294 -154 405 -133 133 -310 178 -511
129 l-85 -20 -640 134 c-352 74 -840 177 -1085 228 -245 51 -448 98 -452 104
-4 5 -8 117 -8 248 l0 237 -410 0 -410 0 0 -399z m543 -743 c4 -496 7 -1248 7
-1671 l0 -770 44 -47 c92 -98 90 -237 -3 -330 -66 -66 -99 -81 -180 -82 -232
-2 -352 238 -206 410 l35 40 0 1151 c0 633 -2 1151 -4 1151 -2 0 -41 -7 -87
-16 -46 -9 -95 -17 -109 -19 -14 -2 -25 -5 -25 -6 0 -1 -9 -3 -20 -4 -11 -1
-71 -10 -133 -20 -93 -15 -112 -21 -108 -34 3 -9 12 -63 21 -121 9 -58 20
-127 25 -155 5 -27 19 -117 32 -199 l23 -149 35 -22 c19 -12 58 -47 86 -77 42
-44 52 -63 58 -102 16 -105 -17 -190 -96 -249 -47 -34 -91 -47 -166 -47 -194
0 -308 191 -218 367 23 47 24 52 11 114 -7 35 -21 116 -30 179 -9 63 -20 131
-25 150 -5 19 -16 86 -24 149 -9 62 -19 118 -22 123 -4 5 -16 7 -28 4 -11 -4
-124 -24 -249 -45 -126 -22 -231 -42 -234 -45 -6 -5 107 -265 136 -313 13 -21
31 -33 53 -38 242 -53 273 -375 45 -470 -86 -36 -223 -11 -290 53 -56 53 -70
95 -65 201 l5 96 -89 199 c-133 298 -142 322 -143 392 0 101 43 130 230 159
61 9 133 21 160 26 28 6 75 14 105 19 30 5 123 20 205 35 83 14 161 28 175 29
14 2 27 5 30 6 8 3 19 5 95 14 39 5 74 11 80 14 5 3 22 7 38 9 17 2 93 14 171
28 77 14 157 27 176 30 19 3 62 10 96 17 l61 11 6 216 c4 119 7 289 7 379 l0
162 148 0 149 0 6 -902z m513 318 c27 -8 94 -23 149 -35 314 -66 496 -104 625
-130 80 -16 192 -39 250 -51 58 -12 157 -33 220 -47 129 -29 224 -49 320 -68
36 -7 141 -29 234 -49 l170 -36 53 30 c48 27 61 30 145 30 73 0 100 -4 123
-18 45 -28 93 -81 116 -129 18 -38 20 -54 14 -117 -6 -68 -10 -76 -51 -124
-26 -30 -67 -62 -100 -78 -47 -23 -63 -26 -117 -22 -77 6 -105 20 -185 92 -43
38 -73 57 -99 61 -21 4 -51 11 -68 15 -16 5 -79 18 -140 30 -60 12 -171 35
-245 50 -74 16 -171 36 -215 45 -82 16 -253 52 -475 100 -179 39 -300 64 -338
71 -17 3 -101 20 -185 38 -83 18 -155 31 -159 29 -5 -2 -8 -60 -8 -128 l0
-124 38 -6 c55 -9 86 -14 212 -36 250 -43 889 -151 950 -160 145 -21 184 -43
195 -110 6 -33 1 -52 -30 -117 -52 -106 -165 -380 -172 -413 -3 -17 1 -36 11
-50 11 -16 16 -45 16 -89 0 -177 -162 -299 -330 -249 -55 17 -131 78 -158 127
-35 62 -34 166 2 226 29 49 101 116 126 116 34 0 59 34 104 142 26 62 52 121
57 130 13 26 12 28 -18 28 -27 0 -58 5 -223 36 -47 9 -141 24 -210 35 -69 10
-188 30 -265 44 -212 38 -285 48 -293 40 -4 -3 -8 -764 -10 -1690 l-2 -1684
33 -25 c87 -67 117 -203 66 -301 -49 -97 -168 -155 -274 -136 -70 13 -101 30
-152 83 -52 54 -63 82 -63 164 0 73 16 118 54 153 l26 24 0 2036 c0 1120 3
2067 7 2105 6 65 9 73 49 113 42 42 45 43 107 43 35 0 86 -6 113 -14z"/>
</g>
</svg>
